<svg><defs><symbol id="mail" class="mail" viewBox="0 0 20 20" fill="none" xmlns="http://www.w3.org/2000/svg"><path d="m1 7.061 8.478 5.19a1 1 0 0 0 1.044 0L19 7.062m-18 0V18a1 1 0 0 0 1 1h16a1 1 0 0 0 1-1V7.061m-18 0 8.441-5.685a1 1 0 0 1 1.118 0L19 7.061" stroke="#606276" stroke-width="2" stroke-linecap="round" stroke-linejoin="round"/></symbol><symbol id="burger" class="burger" viewBox="0 0 37 30" fill="none" xmlns="http://www.w3.org/2000/svg"><path fill-rule="evenodd" clip-rule="evenodd" d="M0 2a2 2 0 0 1 2-2h33a2 2 0 1 1 0 4H2a2 2 0 0 1-2-2Zm0 13a2 2 0 0 1 2-2h33a2 2 0 1 1 0 4H2a2 2 0 0 1-2-2Zm2 11a2 2 0 1 0 0 4h33a2 2 0 1 0 0-4H2Z" fill="#41456B"/></symbol></defs></svg>