<svg width="17" height="17" fill="none" xmlns="http://www.w3.org/2000/svg"><path d="M8.858 4.695a4.137 4.137 0 0 0-4.13 4.13c0 2.29 1.84 4.128 4.13 4.128a4.137 4.137 0 0 0 4.129-4.129c0-2.258-1.871-4.129-4.13-4.129Zm0 6.774a2.657 2.657 0 0 1-2.646-2.645A2.657 2.657 0 0 1 8.858 6.18a2.657 2.657 0 0 1 2.645 2.645 2.657 2.657 0 0 1-2.645 2.646Zm4.292-5.935a.935.935 0 1 0 0-1.87.935.935 0 0 0 0 1.87Z" fill="#7481FF"/><path d="M15.567 2.18C14.728 1.309 13.535.857 12.18.857H5.535C2.728.857.857 2.727.857 5.534v6.613c0 1.387.452 2.58 1.355 3.452.871.839 2.033 1.258 3.355 1.258h6.58c1.388 0 2.55-.452 3.388-1.258.87-.839 1.322-2.032 1.322-3.42V5.535c0-1.354-.451-2.516-1.29-3.354Zm-.129 10c0 1-.355 1.806-.935 2.354-.581.549-1.387.84-2.355.84h-6.58c-.969 0-1.775-.291-2.356-.84-.58-.58-.87-1.387-.87-2.387V5.534c0-.967.29-1.774.87-2.354.549-.549 1.387-.84 2.355-.84h6.645c.968 0 1.774.291 2.355.872.549.58.871 1.387.871 2.322v6.646Z" fill="#7481FF"/></svg>