<svg width="18" height="13" viewBox="0 0 18 13" fill="none" xmlns="http://www.w3.org/2000/svg">
<path d="M17.3845 2.27726C17.19 1.55432 16.62 0.984443 15.8972 0.789779C14.5767 0.428467 9.29447 0.428467 9.29447 0.428467C9.29447 0.428467 4.01249 0.428467 2.69196 0.776081C1.98304 0.970538 1.39915 1.55443 1.20469 2.27726C0.857178 3.59768 0.857178 6.33605 0.857178 6.33605C0.857178 6.33605 0.857178 9.08822 1.20469 10.3948C1.39935 11.1177 1.96913 11.6876 2.69207 11.8822C4.02639 12.2436 9.29468 12.2436 9.29468 12.2436C9.29468 12.2436 14.5767 12.2436 15.8972 11.896C16.6201 11.7015 17.19 11.1316 17.3847 10.4087C17.7321 9.08822 17.7321 6.34995 17.7321 6.34995C17.7321 6.34995 17.746 3.59768 17.3845 2.27726ZM7.61274 8.86585V3.80624L12.0051 6.33605L7.61274 8.86585Z" fill="white"/>
</svg>
