<svg width="66" height="33" fill="none" xmlns="http://www.w3.org/2000/svg"><path fill-rule="evenodd" clip-rule="evenodd" d="M6.174 25H5a3 3 0 0 1-3-3v-4.5h2a1 1 0 1 0 0-2H2v-.486a3 3 0 0 1 .504-1.664L9.18 3.336A3 3 0 0 1 11.676 2H28v8h-4a1 1 0 1 0 0 2h26a1 1 0 0 0 .395-.081 7 7 0 0 0 1.65.414l9.325 1.16a3 3 0 0 1 2.47 2.007H61.5a1 1 0 1 0 0 2H64V22a3 3 0 0 1-3 3h-1.174a6.503 6.503 0 0 0-12.652 0H18.826a6.503 6.503 0 0 0-12.652 0ZM30 10h17.64l-6.617-7.053A3 3 0 0 0 38.835 2H30v8Zm31 17h-1.019a6.5 6.5 0 0 1-12.962 0H18.98a6.5 6.5 0 0 1-12.96 0H5a5 5 0 0 1-5-5v-6.986a5 5 0 0 1 .84-2.774L7.516 2.226A5 5 0 0 1 11.676 0h27.16a5 5 0 0 1 3.645 1.579l6.783 7.229a5 5 0 0 0 3.029 1.54l9.324 1.16A5 5 0 0 1 66 16.47V22a5 5 0 0 1-5 5Zm-48.5 4a4.5 4.5 0 1 0 0-9 4.5 4.5 0 0 0 0 9Zm41 0a4.5 4.5 0 1 0 0-9 4.5 4.5 0 0 0 0 9ZM31 15.5a1 1 0 1 0 0 2h3a1 1 0 1 0 0-2h-3Z" fill="#41456B"/></svg>