<svg width="42" height="53" fill="none" xmlns="http://www.w3.org/2000/svg"><path fill-rule="evenodd" clip-rule="evenodd" d="M0 4a4 4 0 0 1 4-4h33a4 4 0 0 1 4 4v36a1 1 0 1 1-2 0V4a2 2 0 0 0-2-2H4a2 2 0 0 0-2 2v44a2 2 0 0 0 2 2h20.887a1 1 0 1 1 0 2H4a4 4 0 0 1-4-4V4Zm41.207 39.293a1 1 0 0 1 0 1.414l-7.5 7.5a1 1 0 0 1-1.414 0l-4-4a1 1 0 0 1 1.414-1.414L33 50.086l6.793-6.793a1 1 0 0 1 1.414 0ZM7 7a1 1 0 0 0 0 2h14a1 1 0 1 0 0-2H7ZM6 18a1 1 0 0 1 1-1h24a1 1 0 1 1 0 2H7a1 1 0 0 1-1-1Zm1 5a1 1 0 1 0 0 2h20a1 1 0 1 0 0-2H7ZM6 36a1 1 0 0 1 1-1h6a1 1 0 1 1 0 2H7a1 1 0 0 1-1-1Zm11-1a1 1 0 1 0 0 2h10a1 1 0 1 0 0-2H17Z" fill="#41456B"/></svg>