<svg width="24" height="24" viewBox="0 0 24 24" fill="none" xmlns="http://www.w3.org/2000/svg">
<g clip-path="url(#clip0_8567_2281)">
<mask id="path-1-inside-1_8567_2281" fill="white">
<path d="M20 21.5294C20.5523 21.5294 21.0058 21.0803 20.9445 20.5314C20.7192 18.5116 19.8149 16.6164 18.364 15.1655C16.6761 13.4776 14.3869 12.5294 12 12.5294C9.61305 12.5294 7.32387 13.4776 5.63604 15.1654C4.18514 16.6164 3.28078 18.5116 3.05548 20.5314C2.99425 21.0803 3.44772 21.5294 4 21.5294L12 21.5294H20Z"/>
</mask>
<path d="M20 21.5294C20.5523 21.5294 21.0058 21.0803 20.9445 20.5314C20.7192 18.5116 19.8149 16.6164 18.364 15.1655C16.6761 13.4776 14.3869 12.5294 12 12.5294C9.61305 12.5294 7.32387 13.4776 5.63604 15.1654C4.18514 16.6164 3.28078 18.5116 3.05548 20.5314C2.99425 21.0803 3.44772 21.5294 4 21.5294L12 21.5294H20Z" stroke="#606276" stroke-width="4" mask="url(#path-1-inside-1_8567_2281)"/>
<circle cx="12.0001" cy="7.76471" r="3.76471" stroke="#606276" stroke-width="2"/>
</g>
<defs>
<clipPath id="clip0_8567_2281">
<rect width="24" height="24" fill="white"/>
</clipPath>
</defs>
</svg>
