<svg width="17" height="17" viewBox="0 0 17 17" fill="none" xmlns="http://www.w3.org/2000/svg">
<path d="M8.85755 4.69531C6.59948 4.69531 4.72852 6.53402 4.72852 8.82434C4.72852 11.1147 6.56723 12.9534 8.85755 12.9534C11.1479 12.9534 12.9866 11.0824 12.9866 8.82434C12.9866 6.56628 11.1156 4.69531 8.85755 4.69531ZM8.85755 11.4695C7.40594 11.4695 6.21239 10.276 6.21239 8.82434C6.21239 7.37273 7.40594 6.17918 8.85755 6.17918C10.3092 6.17918 11.5027 7.37273 11.5027 8.82434C11.5027 10.276 10.3092 11.4695 8.85755 11.4695Z" fill="#7481FF"/>
<path d="M13.1503 5.53405C13.667 5.53405 14.0858 5.11522 14.0858 4.59857C14.0858 4.08192 13.667 3.66309 13.1503 3.66309C12.6337 3.66309 12.2148 4.08192 12.2148 4.59857C12.2148 5.11522 12.6337 5.53405 13.1503 5.53405Z" fill="#7481FF"/>
<path d="M15.5671 2.17951C14.7284 1.30855 13.5348 0.856934 12.18 0.856934H5.53484C2.72839 0.856934 0.857422 2.7279 0.857422 5.53435V12.1473C0.857422 13.5344 1.30903 14.7279 2.21226 15.5989C3.08323 16.4376 4.24452 16.8569 5.5671 16.8569H12.1477C13.5348 16.8569 14.6961 16.4053 15.5348 15.5989C16.4058 14.7602 16.8574 13.5666 16.8574 12.1795V5.53435C16.8574 4.17951 16.4058 3.01822 15.5671 2.17951ZM15.4381 12.1795C15.4381 13.1795 15.0832 13.986 14.5026 14.5344C13.9219 15.0827 13.1155 15.3731 12.1477 15.3731H5.5671C4.59936 15.3731 3.79291 15.0827 3.21226 14.5344C2.63162 13.9537 2.34129 13.1473 2.34129 12.1473V5.53435C2.34129 4.56661 2.63162 3.76016 3.21226 3.17951C3.76065 2.63113 4.59936 2.3408 5.5671 2.3408H12.2123C13.18 2.3408 13.9865 2.63113 14.5671 3.21177C15.1155 3.79242 15.4381 4.59887 15.4381 5.53435V12.1795Z" fill="#7481FF"/>
</svg>
