<svg>
	<defs>
		<symbol id="mail"
				class="mail"
				viewBox="0 0 20 20"
				fill="none"
				xmlns="http://www.w3.org/2000/svg">
			<path d="M1 7.06122L9.47785 12.2517C9.7983 12.4479 10.2017 12.4479 10.5222 12.2517L19 7.06122M1 7.06122V18C1 18.5523 1.44772 19 2 19H18C18.5523 19 19 18.5523 19 18V7.06122M1 7.06122L9.4414 1.3762C9.77908 1.14878 10.2209 1.14878 10.5586 1.3762L19 7.06122"
				  stroke="#606276"
				  stroke-width="2"
				  stroke-linecap="round"
				  stroke-linejoin="round" />
		</symbol>
		<symbol id="burger"
				class="burger"
				viewBox="0 0 37 30"
				fill="none"
				xmlns="http://www.w3.org/2000/svg">
			<path fill-rule="evenodd"
				  clip-rule="evenodd"
				  d="M0 2C0 0.895431 0.89543 0 2 0H35C36.1046 0 37 0.895431 37 2C37 3.10457 36.1046 4 35 4H2C0.895432 4 0 3.10457 0 2ZM0 15C0 13.8954 0.89543 13 2 13H35C36.1046 13 37 13.8954 37 15C37 16.1046 36.1046 17 35 17H2C0.895432 17 0 16.1046 0 15ZM2 26C0.89543 26 0 26.8954 0 28C0 29.1046 0.895432 30 2 30H35C36.1046 30 37 29.1046 37 28C37 26.8954 36.1046 26 35 26H2Z"
				  fill="#41456B" />
		</symbol>

	</defs>
</svg>